<svg 
 xmlns="http://www.w3.org/2000/svg"
 xmlns:xlink="http://www.w3.org/1999/xlink"
 width="20px" height="20px">
<path fill-rule="evenodd"  fill="rgb(190, 190, 190)"
 d="M1.986,9.995 C1.986,7.805 2.776,5.919 4.357,4.338 C5.937,2.758 7.823,1.967 10.014,1.967 C12.204,1.967 14.090,2.758 15.671,4.338 C17.251,5.919 18.042,7.805 18.042,9.995 C18.042,12.186 17.251,14.072 15.671,15.652 C14.090,17.233 12.204,18.023 10.014,18.023 C7.823,18.023 5.937,17.233 4.357,15.652 C2.776,14.072 1.986,12.186 1.986,9.995 ZM0.014,9.995 C0.014,12.750 0.992,15.105 2.948,17.061 C4.904,19.017 7.259,19.995 10.014,19.995 C12.768,19.995 15.123,19.017 17.080,17.061 C19.035,15.105 20.014,12.750 20.014,9.995 C20.014,7.241 19.035,4.886 17.080,2.929 C15.123,0.974 12.768,-0.005 10.014,-0.005 C7.259,-0.005 4.904,0.974 2.948,2.929 C0.992,4.886 0.014,7.241 0.014,9.995 ZM10.014,8.587 L7.432,6.004 L6.023,7.413 L8.605,9.995 L6.023,12.577 L7.432,13.986 L10.014,11.403 L12.596,13.986 L14.004,12.577 L11.422,9.995 L14.004,7.413 L12.596,6.004 L10.014,8.587 Z"/>
</svg>