<svg xmlns="http://www.w3.org/2000/svg" viewBox="0 0 80 80"><defs><style>.cls-1{fill:#5ad2ff;}.cls-2{fill:#32c8ff;}.cls-3,.cls-8{opacity:0.2;}.cls-4,.cls-8{fill:#004d74;}.cls-5{fill:#003d5b;}.cls-6{fill:#d4d8da;}.cls-7{fill:#f0f0f0;}</style></defs><title>hola_player</title><g id="Layer_2" data-name="Layer 2"><g id="Layer_1-2" data-name="Layer 1"><path class="cls-1" d="M0,22H80a0,0,0,0,1,0,0V70A10,10,0,0,1,70,80H10A10,10,0,0,1,0,70V22A0,0,0,0,1,0,22Z"/><path class="cls-2" d="M40,22H80a0,0,0,0,1,0,0V68A12,12,0,0,1,68,80H40a0,0,0,0,1,0,0V22A0,0,0,0,1,40,22Z"/><g class="cls-3"><path id="Mouth" class="cls-4" d="M63.16,45.71c0,12-10.37,22.59-23.16,22.59S16.84,57.67,16.84,45.71H13C13,60,25.12,72,40,72S67,60,67,45.71Z"/><g id="Eyes"><ellipse class="cls-4" cx="52.73" cy="38.78" rx="5.12" ry="6.87"/><ellipse class="cls-4" cx="27.07" cy="38.78" rx="5.12" ry="6.87"/></g></g><path id="Mouth-2" data-name="Mouth" d="M63.16,43.8c0,12-10.37,22.59-23.16,22.59S16.84,55.76,16.84,43.8H13c0,14.33,12.12,26.29,27,26.29s27-12,27-26.29Z"/><g id="Eyes-2" data-name="Eyes"><ellipse cx="52.73" cy="36.87" rx="5.12" ry="6.87"/><ellipse cx="27.07" cy="36.87" rx="5.12" ry="6.87"/></g><path class="cls-4" d="M40,0H10A10,10,0,0,0,0,10V22H40Z"/><path class="cls-5" d="M70,0H40V22H80V10A10,10,0,0,0,70,0Z"/><polygon class="cls-6" points="76 10 62 10 54 2 68 2 76 10"/><polygon class="cls-6" points="51 10 37 10 29 2 43 2 51 10"/><polygon class="cls-7" points="26 10 12 10 4 2 18 2 26 10"/><polygon class="cls-7" points="40 10 37 10 29 2 40 2 40 10"/><polygon class="cls-6" points="76 12 62 12 54 20 68 20 76 12"/><polygon class="cls-6" points="51 12 37 12 29 20 43 20 51 12"/><polygon class="cls-7" points="26 12 12 12 4 20 18 20 26 12"/><polygon class="cls-7" points="40 12 37 12 29 20 40 20 40 12"/><path class="cls-8" d="M70,78H10A10,10,0,0,1,0,68v2A10,10,0,0,0,10,80H70A10,10,0,0,0,80,70V68A10,10,0,0,1,70,78Z"/><rect class="cls-8" y="22" width="80" height="2"/></g></g></svg>