<svg 
 xmlns="http://www.w3.org/2000/svg"
 xmlns:xlink="http://www.w3.org/1999/xlink"
 width="13px" height="13px">
<path fill-rule="evenodd"  fill="rgb(0, 156, 214)"
 d="M4.000,5.000 C4.451,4.979 5.000,5.000 5.000,5.000 C5.000,4.579 5.662,4.000 6.500,4.000 C7.590,4.000 8.008,4.636 8.000,5.000 C7.974,6.209 5.995,5.906 6.000,8.000 L7.000,8.000 C7.000,6.594 9.000,6.988 9.000,5.000 C9.000,4.005 7.861,3.000 6.500,3.000 C5.169,3.000 4.000,4.093 4.000,5.000 ZM1.009,6.510 C1.009,5.009 1.550,3.717 2.634,2.633 C3.716,1.551 5.008,1.009 6.510,1.009 C8.010,1.009 9.303,1.551 10.386,2.633 C11.468,3.717 12.010,5.009 12.010,6.510 C12.010,8.011 11.468,9.303 10.386,10.386 C9.303,11.469 8.010,12.010 6.510,12.010 C5.008,12.010 3.716,11.469 2.634,10.386 C1.550,9.303 1.009,8.011 1.009,6.510 ZM-0.004,6.496 C-0.004,8.287 0.632,9.818 1.904,11.089 C3.175,12.361 4.706,12.996 6.496,12.996 C8.286,12.996 9.818,12.361 11.089,11.089 C12.360,9.818 12.996,8.287 12.996,6.496 C12.996,4.706 12.360,3.175 11.089,1.904 C9.818,0.632 8.286,-0.004 6.496,-0.004 C4.706,-0.004 3.175,0.632 1.904,1.904 C0.632,3.175 -0.004,4.706 -0.004,6.496 ZM7.000,10.000 L7.000,9.000 L6.000,9.000 L6.000,10.000 L7.000,10.000 Z"/>
</svg>